<?xml version="1.0" encoding="utf-8"?>
<svg version="1.1" xmlns:xlink="http://www.w3.org/1999/xlink" width="12px" height="12px" viewBox="602 512  12 12" xmlns="http://www.w3.org/2000/svg">
  <path d="M 608 512  C 611.36 512  614 514.64  614 518  C 614 521.36  611.36 524  608 524  C 604.64 524  602 521.36  602 518  C 602 514.64  604.64 512  608 512  Z " fill-rule="nonzero" fill="#ffffff" stroke="none" />
  <path d="M 608 512.5  C 611.08 512.5  613.5 514.92  613.5 518  C 613.5 521.08  611.08 523.5  608 523.5  C 604.92 523.5  602.5 521.08  602.5 518  C 602.5 514.92  604.92 512.5  608 512.5  Z " stroke-width="1" stroke="#797979" fill="none" />
  <path d="M 608 521  C 606.32 521  605 519.68  605 518  C 605 516.32  606.32 515  608 515  C 609.68 515  611 516.32  611 518  C 611 519.68  609.68 521  608 521  " fill-rule="nonzero" fill="#797979" stroke="none" />
</svg>