<?xml version="1.0" encoding="utf-8"?>
<svg version="1.1" xmlns:xlink="http://www.w3.org/1999/xlink" width="106px" height="95px" xmlns="http://www.w3.org/2000/svg">
  <g transform="matrix(1 0 0 1 -271 -66 )">
    <path d="M 271.5 128.008474576271  C 271.5 128.008474576271  271.5 75  271.5 75  C 271.5 70.3055796264383  275.305579626438 66.5  280 66.5  C 280 66.5  368 66.5  368 66.5  C 372.694420373562 66.5  376.5 70.3055796264383  376.5 75  C 376.5 75  376.5 128.008474576271  376.5 128.008474576271  C 376.5 132.702894949833  372.694420373562 136.508474576271  368 136.508474576271  C 368 136.508474576271  306.283841598219 136.508474576271  306.283841598219 136.508474576271  C 306.283841598219 136.508474576271  295.776417987888 158.648735065142  295.776417987888 158.648735065142  C 295.776417987888 158.648735065142  286.938778749742 136.508474576271  286.938778749742 136.508474576271  C 286.938778749742 136.508474576271  280 136.508474576271  280 136.508474576271  C 275.305579626438 136.508474576271  271.5 132.702894949833  271.5 128.008474576271  Z " fill-rule="nonzero" fill="#ffffff" stroke="none" />
    <path d="M 271 128.008474576271  C 271 128.008474576271  271 75  271 75  C 271 70.0294372515229  275.029437251523 66  280 66  C 280 66  368 66  368 66  C 372.970562748477 66  377 70.0294372515229  377 75  C 377 75  377 128.008474576271  377 128.008474576271  C 377 132.979037324748  372.970562748477 137.008474576271  368 137.008474576271  C 368 137.008474576271  306.6 137.008474576271  306.6 137.008474576271  C 306.6 137.008474576271  295.736842105263 159.898305084746  295.736842105263 159.898305084746  C 295.736842105263 159.898305084746  286.6 137.008474576271  286.6 137.008474576271  C 286.6 137.008474576271  280 137.008474576271  280 137.008474576271  C 275.029437251523 137.008474576271  271 132.979037324748  271 128.008474576271  Z M 272 128.008474576271  C 272 132.426752574918  275.581722001354 136.008474576271  280 136.008474576271  C 280 136.008474576271  287.277557499484 136.008474576271  287.277557499484 136.008474576271  C 287.277557499484 136.008474576271  295.815993870513 157.399165045538  295.815993870513 157.399165045538  C 295.815993870513 157.399165045538  305.967683196437 136.008474576271  305.967683196437 136.008474576271  C 305.967683196437 136.008474576271  368 136.008474576271  368 136.008474576271  C 372.418277998646 136.008474576271  376 132.426752574918  376 128.008474576271  C 376 128.008474576271  376 75  376 75  C 376 70.5817220013537  372.418277998646 67  368 67  C 368 67  280 67  280 67  C 275.581722001354 67  272 70.5817220013537  272 75  C 272 75  272 128.008474576271  272 128.008474576271  Z " fill-rule="nonzero" fill="#81d3f8" stroke="none" />
  </g>
</svg>