<?xml version="1.0" encoding="utf-8"?>
<svg version="1.1" xmlns:xlink="http://www.w3.org/1999/xlink" width="106px" height="95px" xmlns="http://www.w3.org/2000/svg">
  <g transform="matrix(1 0 0 1 -265 -56 )">
    <path d="M 265.5 118.008474576271  C 265.5 118.008474576271  265.5 65  265.5 65  C 265.5 60.3055796264383  269.305579626438 56.5  274 56.5  C 274 56.5  362 56.5  362 56.5  C 366.694420373562 56.5  370.5 60.3055796264383  370.5 65  C 370.5 65  370.5 118.008474576271  370.5 118.008474576271  C 370.5 122.702894949833  366.694420373562 126.508474576271  362 126.508474576271  C 362 126.508474576271  300.283841598219 126.508474576271  300.283841598219 126.508474576271  C 300.283841598219 126.508474576271  289.776417987888 148.648735065142  289.776417987888 148.648735065142  C 289.776417987888 148.648735065142  280.938778749742 126.508474576271  280.938778749742 126.508474576271  C 280.938778749742 126.508474576271  274 126.508474576271  274 126.508474576271  C 269.305579626438 126.508474576271  265.5 122.702894949833  265.5 118.008474576271  Z " fill-rule="nonzero" fill="#ffffff" stroke="none" />
    <path d="M 265 118.008474576271  C 265 118.008474576271  265 65  265 65  C 265 60.0294372515229  269.029437251523 56  274 56  C 274 56  362 56  362 56  C 366.970562748477 56  371 60.0294372515229  371 65  C 371 65  371 118.008474576271  371 118.008474576271  C 371 122.979037324748  366.970562748477 127.008474576271  362 127.008474576271  C 362 127.008474576271  300.6 127.008474576271  300.6 127.008474576271  C 300.6 127.008474576271  289.736842105263 149.898305084746  289.736842105263 149.898305084746  C 289.736842105263 149.898305084746  280.6 127.008474576271  280.6 127.008474576271  C 280.6 127.008474576271  274 127.008474576271  274 127.008474576271  C 269.029437251523 127.008474576271  265 122.979037324748  265 118.008474576271  Z M 266 118.008474576271  C 266 122.426752574918  269.581722001354 126.008474576271  274 126.008474576271  C 274 126.008474576271  281.277557499484 126.008474576271  281.277557499484 126.008474576271  C 281.277557499484 126.008474576271  289.815993870513 147.399165045538  289.815993870513 147.399165045538  C 289.815993870513 147.399165045538  299.967683196437 126.008474576271  299.967683196437 126.008474576271  C 299.967683196437 126.008474576271  362 126.008474576271  362 126.008474576271  C 366.418277998646 126.008474576271  370 122.426752574918  370 118.008474576271  C 370 118.008474576271  370 65  370 65  C 370 60.5817220013537  366.418277998646 57  362 57  C 362 57  274 57  274 57  C 269.581722001354 57  266 60.5817220013537  266 65  C 266 65  266 118.008474576271  266 118.008474576271  Z " fill-rule="nonzero" fill="#81d3f8" stroke="none" />
  </g>
</svg>