<?xml version="1.0" encoding="utf-8"?>
<svg version="1.1" xmlns:xlink="http://www.w3.org/1999/xlink" width="7px" height="7px" xmlns="http://www.w3.org/2000/svg">
  <g transform="matrix(1 0 0 1 -885 -41 )">
    <path d="M 888.5 41  C 890.46 41  892 42.54  892 44.5  C 892 46.46  890.46 48  888.5 48  C 886.54 48  885 46.46  885 44.5  C 885 42.54  886.54 41  888.5 41  Z " fill-rule="nonzero" fill="#ffffff" stroke="none" />
    <path d="M 888.5 41.5  C 890.18 41.5  891.5 42.82  891.5 44.5  C 891.5 46.18  890.18 47.5  888.5 47.5  C 886.82 47.5  885.5 46.18  885.5 44.5  C 885.5 42.82  886.82 41.5  888.5 41.5  Z " stroke-width="1" stroke="#797979" fill="none" />
  </g>
</svg>