<?xml version="1.0" encoding="utf-8"?>
<svg version="1.1" xmlns:xlink="http://www.w3.org/1999/xlink" width="7px" height="7px" xmlns="http://www.w3.org/2000/svg">
  <g transform="matrix(1 0 0 1 -765 -41 )">
    <path d="M 768.5 41  C 770.46 41  772 42.54  772 44.5  C 772 46.46  770.46 48  768.5 48  C 766.54 48  765 46.46  765 44.5  C 765 42.54  766.54 41  768.5 41  Z " fill-rule="nonzero" fill="#ffffff" stroke="none" />
    <path d="M 768.5 41.5  C 770.18 41.5  771.5 42.82  771.5 44.5  C 771.5 46.18  770.18 47.5  768.5 47.5  C 766.82 47.5  765.5 46.18  765.5 44.5  C 765.5 42.82  766.82 41.5  768.5 41.5  Z " stroke-width="1" stroke="#797979" fill="none" />
  </g>
</svg>