<?xml version="1.0" encoding="utf-8"?>
<svg version="1.1" xmlns:xlink="http://www.w3.org/1999/xlink" width="28px" height="28px" xmlns="http://www.w3.org/2000/svg">
  <g transform="matrix(1 0 0 1 -471 -340 )">
    <path d="M 485 340  C 492.84 340  499 346.16  499 354  C 499 361.84  492.84 368  485 368  C 477.16 368  471 361.84  471 354  C 471 346.16  477.16 340  485 340  Z " fill-rule="nonzero" fill="#ffffff" stroke="none" />
    <path d="M 485 340.5  C 492.56 340.5  498.5 346.44  498.5 354  C 498.5 361.56  492.56 367.5  485 367.5  C 477.44 367.5  471.5 361.56  471.5 354  C 471.5 346.44  477.44 340.5  485 340.5  Z " stroke-width="1" stroke="#333333" fill="none" />
  </g>
</svg>